<svg id="Capa_1" enable-background="new 0 0 512 512" height="512" viewBox="0 0 512 512" width="512" xmlns="http://www.w3.org/2000/svg"><g><path id="XMLID_1285_" d="m441.849 93.69h-4.694l-41.925-85.306c-2.522-5.132-7.743-8.384-13.461-8.384h-251.538c-5.719 0-10.94 3.252-13.462 8.384l-41.924 85.306h-4.694c-8.284 0-15 6.716-15 15v366.561c0 8.284 6.716 15 15 15h16.337v6.749c0 8.284 6.716 15 15 15s15-6.716 15-15v-6.749h279.023v6.749c0 8.284 6.716 15 15 15s15-6.716 15-15v-6.749h16.337c8.284 0 15-6.716 15-15v-366.561c.001-8.284-6.715-15-14.999-15zm-302.276-63.69h232.854l31.301 63.69h-295.456zm287.276 430.251h-341.698v-336.561h341.697v336.561z"/><path id="XMLID_1281_" d="m132.005 431.799h247.99c8.284 0 15-6.716 15-15v-219.268c0-8.284-6.716-15-15-15h-247.99c-8.284 0-15 6.716-15 15v219.268c0 8.284 6.716 15 15 15zm15-219.268h217.99v189.268h-217.99z"/><path id="XMLID_1280_" d="m195.273 247.187c-8.284 0-15 6.716-15 15v89.177c0 8.284 6.716 15 15 15s15-6.716 15-15v-89.177c0-8.285-6.716-15-15-15z"/><path id="XMLID_1278_" d="m167.85 46.398c-8.552 0-15.484 6.916-15.484 15.447s6.933 15.447 15.484 15.447c8.552 0 15.485-6.916 15.485-15.447-.001-8.531-6.933-15.447-15.485-15.447z"/><ellipse id="XMLID_1262_" cx="256" cy="61.845" rx="15.484" ry="15.447"/><ellipse id="XMLID_1259_" cx="344.15" cy="61.845" rx="15.484" ry="15.447"/></g></svg>